<svg width="214" height="37" viewBox="0 0 214 37" fill="none" xmlns="http://www.w3.org/2000/svg">
<g clip-path="url(#clip0_2_77)">
<path fill-rule="evenodd" clip-rule="evenodd" d="M15.0103 6.5472L22.947 11.2266L28 8.25L20.06 3.5739L15.0103 6.5472ZM13.9984 0L0 8.25V14.2065L5.053 11.2266L6.20067 10.5501L13.9984 5.9532L19.0514 2.9766L13.9984 0ZM0 15.3978V24.75L13.9984 33L19.0514 30.0234L13.9984 27.0468L5.04976 21.7734V12.4179L0 15.3978Z" fill="#333333"/>
<path fill-rule="evenodd" clip-rule="evenodd" d="M22.947 21.7734L15.3368 26.2581L15.007 26.4528L20.06 29.4261L28 24.75V18.7968L22.947 21.7734Z" fill="#333333"/>
</g>
<path d="M30.176 16.512H38.976C40.2773 16.512 41.312 16.192 42.08 15.552C42.848 14.8907 43.232 13.9627 43.232 12.768C43.232 10.5067 41.8027 9.376 38.944 9.376H30.176V5.6H39.424C41.9627 5.6 43.904 6.21867 45.248 7.456C46.6133 8.672 47.296 10.4107 47.296 12.672C47.296 13.2693 47.2107 13.8987 47.04 14.56C46.8907 15.2 46.656 15.8187 46.336 16.416C46.016 17.0133 45.6107 17.568 45.12 18.08C44.6293 18.592 44.0427 19.0187 43.36 19.36L48.576 28H43.712L39.52 20.096H34.496V28H30.176V16.512ZM60.2318 28H55.9118V19.04L48.2638 5.6H53.2238L60.2318 18.112V28ZM59.3678 12.16L63.1758 5.6H68.0718L61.6718 15.936L59.3678 12.16ZM74.0785 20.416V28H69.7585V16.64H77.8865C79.2945 16.64 80.3612 16.32 81.0865 15.68C81.8118 15.0187 82.1745 14.1013 82.1745 12.928C82.1745 11.7547 81.8332 10.8693 81.1505 10.272C80.4892 9.67467 79.3905 9.376 77.8545 9.376H69.7585V5.6H78.5905C80.1052 5.6 81.3745 5.792 82.3985 6.176C83.4438 6.53867 84.2865 7.05067 84.9265 7.712C85.5665 8.352 86.0252 9.10933 86.3025 9.984C86.5798 10.8587 86.7185 11.7973 86.7185 12.8C86.7185 13.824 86.5585 14.7947 86.2385 15.712C85.9398 16.6293 85.4598 17.44 84.7985 18.144C84.1585 18.848 83.3265 19.4027 82.3025 19.808C81.2785 20.2133 80.0412 20.416 78.5905 20.416H74.0785ZM104.577 5.6V9.792H86.7852V5.6H104.577ZM97.8572 12.64V28H93.5372V12.64H97.8572ZM116.933 5.28C118.597 5.28 120.144 5.536 121.573 6.048C123.002 6.56 124.24 7.30666 125.285 8.288C126.352 9.26933 127.184 10.4747 127.781 11.904C128.378 13.3333 128.677 14.9653 128.677 16.8C128.677 18.72 128.378 20.4053 127.781 21.856C127.184 23.2853 126.352 24.48 125.285 25.44C124.24 26.4 123.002 27.1253 121.573 27.616C120.144 28.0853 118.597 28.32 116.933 28.32C115.312 28.32 113.797 28.064 112.389 27.552C110.981 27.04 109.754 26.304 108.709 25.344C107.664 24.3627 106.832 23.1573 106.213 21.728C105.616 20.2987 105.317 18.656 105.317 16.8H109.669C109.669 18.0373 109.85 19.1253 110.213 20.064C110.597 21.0027 111.109 21.7813 111.749 22.4C112.41 23.0187 113.178 23.488 114.053 23.808C114.949 24.1067 115.909 24.256 116.933 24.256C118 24.256 118.981 24.1067 119.877 23.808C120.773 23.488 121.552 23.0187 122.213 22.4C122.896 21.7813 123.418 21.0027 123.781 20.064C124.165 19.1253 124.357 18.0373 124.357 16.8C124.357 15.5413 124.165 14.4533 123.781 13.536C123.418 12.5973 122.896 11.8293 122.213 11.232C121.552 10.6133 120.773 10.1547 119.877 9.856C118.981 9.536 118 9.376 116.933 9.376V5.28Z" fill="black"/>
<path d="M129.27 5.6H133.814L141.878 28H137.462L129.27 5.6ZM141.27 19.072L145.91 5.6H150.838L143.318 24.672L141.27 19.072ZM152.455 9.056V5.6H156.807V9.056H152.455ZM152.455 12H156.775V28H152.455V12ZM160.271 9.792V5.6H176.847V9.792H160.271ZM160.271 18.784V14.816H176.847V18.784H160.271ZM160.271 23.776H176.847V28H160.271V23.776ZM193.439 5.6H197.791L203.007 22.176H203.231L208.383 5.6H213.279L205.087 28H200.575L193.439 5.6ZM178.271 5.6H183.167L188.735 22.176H188.959L192.447 11.008L194.431 16.8L190.783 28H186.239L178.271 5.6Z" fill="#F7931A"/>
<defs>
<clipPath id="clip0_2_77">
<rect width="28" height="33" fill="white"/>
</clipPath>
</defs>
</svg>
