<svg width="60" height="36" viewBox="0 0 60 36" fill="none" xmlns="http://www.w3.org/2000/svg">
<g clip-path="url(#clip0_2_79)">
<path fill-rule="evenodd" clip-rule="evenodd" d="M15.0103 8.5472L22.947 13.2266L28 10.25L20.06 5.5739L15.0103 8.5472ZM13.9984 2L0 10.25V16.2065L5.053 13.2266L6.20067 12.5501L13.9984 7.9532L19.0514 4.9766L13.9984 2ZM0 17.3978V26.75L13.9984 35L19.0514 32.0234L13.9984 29.0468L5.04976 23.7734V14.4179L0 17.3978Z" fill="#333333"/>
<path fill-rule="evenodd" clip-rule="evenodd" d="M22.947 23.7734L15.3368 28.2581L15.007 28.4528L20.06 31.4261L28 26.75V20.7968L22.947 23.7734Z" fill="#333333"/>
</g>
<path d="M30.088 4.2H36.336L47.424 35H41.352L30.088 4.2ZM46.588 22.724L52.968 4.2H59.744L49.404 30.424L46.588 22.724Z" fill="#F7931A"/>
<path d="M33.8029 16.0576H41.7836" stroke="white"/>
<path d="M39.2675 32.4426C39.3618 32.4426 39.4451 32.4655 39.5371 32.4853C39.98 32.5805 40.4252 32.6355 40.8652 32.7523C41.772 32.9928 42.6715 33.2422 43.5894 33.4397C44.6769 33.6736 45.7699 33.8794 46.8489 34.1511C47.1578 34.2289 47.4701 34.3008 47.7659 34.4127C48.0106 34.5053 48.2848 34.5776 48.5413 34.6289" stroke="white"/>
<defs>
<clipPath id="clip0_2_79">
<rect width="28" height="33" fill="white" transform="translate(0 2)"/>
</clipPath>
</defs>
</svg>
