<svg width="18" height="20" viewBox="0 0 18 20" fill="none" xmlns="http://www.w3.org/2000/svg">
<circle cx="9" cy="11" r="9" fill="#333333"/>
<path d="M3.94267 15.5C3.67394 15.5 3.44975 15.4102 3.27008 15.2305C3.09042 15.0508 3.00039 14.8265 3 14.5573V8.276C3 8.00728 3.09003 7.78309 3.27008 7.60342C3.45014 7.42375 3.67433 7.33373 3.94267 7.33334H5.66758L6.46442 6.46709C6.54997 6.37453 6.65361 6.30142 6.77533 6.24775C6.89628 6.1937 7.02325 6.16667 7.15625 6.16667H9.48375C9.56658 6.16667 9.636 6.19467 9.692 6.25067C9.748 6.30667 9.776 6.37609 9.776 6.45892C9.776 6.54175 9.748 6.61098 9.692 6.66659C9.636 6.7222 9.56678 6.75 9.48433 6.75H6.99933L5.92367 7.91667H3.94267C3.83767 7.91667 3.75153 7.95031 3.68425 8.01759C3.61697 8.08487 3.58333 8.171 3.58333 8.276V14.5579C3.58333 14.6625 3.61697 14.7485 3.68425 14.8158C3.75153 14.883 3.83767 14.9167 3.94267 14.9167H12.5579C12.6625 14.9167 12.7485 14.883 12.8157 14.8158C12.883 14.7485 12.9167 14.6623 12.9167 14.5573V10.1823C12.9167 10.0999 12.9447 10.0307 13.0007 9.97467C13.0567 9.91867 13.1261 9.89067 13.2089 9.89067C13.2917 9.89067 13.361 9.91867 13.4166 9.97467C13.4722 10.0307 13.5 10.0999 13.5 10.1823V14.5573C13.5 14.8261 13.41 15.0503 13.2299 15.2299C13.0499 15.4096 12.8259 15.4996 12.5579 15.5H3.94267ZM12.9167 6.75H12.0417C11.9588 6.75 11.8896 6.722 11.834 6.666C11.7784 6.61 11.7504 6.54059 11.75 6.45775C11.7496 6.37492 11.7776 6.3057 11.834 6.25009C11.8904 6.19448 11.9596 6.16667 12.0417 6.16667H12.9167V5.29167C12.9167 5.20884 12.9447 5.13962 13.0007 5.084C13.0567 5.02839 13.1261 5.00039 13.2089 5C13.2917 4.99962 13.361 5.02762 13.4166 5.084C13.4722 5.14039 13.5 5.20962 13.5 5.29167V6.16667H14.375C14.4578 6.16667 14.5271 6.19467 14.5827 6.25067C14.6383 6.30667 14.6663 6.37609 14.6667 6.45892C14.6671 6.54175 14.6391 6.61098 14.5827 6.66659C14.5263 6.7222 14.4571 6.75 14.375 6.75H13.5V7.625C13.5 7.70784 13.472 7.77706 13.416 7.83267C13.36 7.88828 13.2906 7.91628 13.2077 7.91667C13.1249 7.91706 13.0557 7.88906 13.0001 7.83267C12.9445 7.77628 12.9167 7.70706 12.9167 7.625V6.75ZM8.25 13.5925C8.85939 13.5925 9.37447 13.3823 9.79525 12.9619C10.216 12.5415 10.4264 12.0264 10.4264 11.4167C10.4264 10.8069 10.216 10.2918 9.79525 9.87142C9.37447 9.45103 8.85939 9.24064 8.25 9.24025C7.64061 9.23987 7.12553 9.45025 6.70475 9.87142C6.28397 10.2926 6.07358 10.8077 6.07358 11.4167C6.07358 12.0257 6.28397 12.5408 6.70475 12.9619C7.12553 13.3831 7.64061 13.5935 8.25 13.5931M8.25 13.0098C7.79694 13.0098 7.41817 12.8575 7.11367 12.553C6.80917 12.2485 6.65692 11.8697 6.65692 11.4167C6.65692 10.9636 6.80917 10.5848 7.11367 10.2803C7.41817 9.97584 7.79694 9.82359 8.25 9.82359C8.70306 9.82359 9.08183 9.97584 9.38633 10.2803C9.69083 10.5848 9.84308 10.9636 9.84308 11.4167C9.84308 11.8697 9.69083 12.2485 9.38633 12.553C9.08183 12.8575 8.70306 13.0098 8.25 13.0098Z" fill="#F7931A"/>
</svg>
