<svg width="24" height="24" viewBox="0 0 24 24" fill="none" xmlns="http://www.w3.org/2000/svg">
<path fill-rule="evenodd" clip-rule="evenodd" d="M6.293 6.29308C6.48053 6.10561 6.73484 6.00029 7 6.00029C7.26516 6.00029 7.51947 6.10561 7.707 6.29308L12 10.5861L16.293 6.29308C16.3852 6.19757 16.4956 6.12139 16.6176 6.06898C16.7396 6.01657 16.8708 5.98898 17.0036 5.98783C17.1364 5.98668 17.2681 6.01198 17.391 6.06226C17.5138 6.11254 17.6255 6.18679 17.7194 6.28069C17.8133 6.37458 17.8875 6.48623 17.9378 6.60913C17.9881 6.73202 18.0134 6.8637 18.0123 6.99648C18.0111 7.12926 17.9835 7.26048 17.9311 7.38249C17.8787 7.50449 17.8025 7.61483 17.707 7.70708L12.707 12.7071C12.5195 12.8946 12.2652 12.9999 12 12.9999C11.7348 12.9999 11.4805 12.8946 11.293 12.7071L6.293 7.70708C6.10553 7.51955 6.00021 7.26525 6.00021 7.00008C6.00021 6.73492 6.10553 6.48061 6.293 6.29308ZM6.293 12.2931C6.48053 12.1056 6.73484 12.0003 7 12.0003C7.26516 12.0003 7.51947 12.1056 7.707 12.2931L12 16.5861L16.293 12.2931C16.4816 12.1109 16.7342 12.0101 16.9964 12.0124C17.2586 12.0147 17.5094 12.1199 17.6948 12.3053C17.8802 12.4907 17.9854 12.7415 17.9877 13.0037C17.99 13.2659 17.8892 13.5185 17.707 13.7071L12.707 18.7071C12.5195 18.8946 12.2652 18.9999 12 18.9999C11.7348 18.9999 11.4805 18.8946 11.293 18.7071L6.293 13.7071C6.10553 13.5196 6.00021 13.2652 6.00021 13.0001C6.00021 12.7349 6.10553 12.4806 6.293 12.2931Z" fill="#F7931A"/>
</svg>
