<svg width="16" height="16" viewBox="0 0 16 16" fill="none" xmlns="http://www.w3.org/2000/svg">
<circle cx="8" cy="8" r="8" fill="#F0B90B"/>
<path d="M5.54519 4.37745L8.00023 3L10.4548 4.37745L9.55487 4.8873L8.00023 4.01745L6.44783 4.8873L5.54519 4.37745ZM10.4548 6.1176L9.55487 5.6073L8.00023 6.4776L6.44783 5.6073L5.54519 6.1176V7.1346L7.09534 8.0049V9.74235L7.99978 10.2527L8.90241 9.74235V8.00535L10.4548 7.13505V6.1176ZM10.4548 8.8752V7.85505L9.55487 8.3649V9.38235L10.4548 8.8752ZM11.0974 9.2352L9.54497 10.1024V11.1225L12 9.74235V6.98745L11.0974 7.49505V9.2352ZM10.1952 5.2473L11.0951 5.7576V6.7746L11.9996 6.26745V5.2473L11.0974 4.73745L10.1952 5.25V5.2473ZM7.09489 10.4727V11.4897L8.00023 12L8.90241 11.4902V10.4745L8.00023 10.983L7.09759 10.4727H7.09489ZM5.54564 8.8725L6.44558 9.38235V8.36535L5.54564 7.85505V8.8752V8.8725ZM7.09579 5.2473L8.00023 5.7576L8.90286 5.2473L8.00023 4.73745L7.09759 5.25L7.09579 5.2473ZM4.90264 5.7576L5.80528 5.2473L4.90534 4.73745L4 5.25V6.27015L4.90219 6.77775L4.90264 5.7576ZM4.90264 7.49505L4 6.98745V9.74235L6.45458 11.1225V10.1001L4.90534 9.2325V7.49235L4.90264 7.49505Z" fill="white"/>
</svg>
