<svg width="430" height="172" viewBox="0 0 430 172" fill="none" xmlns="http://www.w3.org/2000/svg">
<rect width="430" height="172" rx="20" fill="#F8F8F8"/>
<path d="M158.352 65.242V75H157.078V65.242H158.352ZM169.749 67.188C170.347 67.188 170.879 67.314 171.345 67.566C171.812 67.8087 172.181 68.1773 172.451 68.672C172.722 69.1667 172.857 69.7687 172.857 70.478V75H171.597V70.66C171.597 69.8947 171.406 69.3113 171.023 68.91C170.65 68.4993 170.141 68.294 169.497 68.294C168.835 68.294 168.307 68.5087 167.915 68.938C167.523 69.358 167.327 69.9693 167.327 70.772V75H166.067V70.66C166.067 69.8947 165.876 69.3113 165.493 68.91C165.12 68.4993 164.611 68.294 163.967 68.294C163.305 68.294 162.777 68.5087 162.385 68.938C161.993 69.358 161.797 69.9693 161.797 70.772V75H160.523V67.328H161.797V68.434C162.049 68.0327 162.385 67.7247 162.805 67.51C163.235 67.2953 163.706 67.188 164.219 67.188C164.863 67.188 165.433 67.3327 165.927 67.622C166.422 67.9113 166.791 68.336 167.033 68.896C167.248 68.3547 167.603 67.9347 168.097 67.636C168.592 67.3373 169.143 67.188 169.749 67.188ZM174.471 71.136C174.471 70.352 174.63 69.666 174.947 69.078C175.264 68.4807 175.698 68.0187 176.249 67.692C176.809 67.3653 177.43 67.202 178.111 67.202C178.783 67.202 179.366 67.3467 179.861 67.636C180.356 67.9253 180.724 68.2893 180.967 68.728V67.328H182.255V75H180.967V73.572C180.715 74.02 180.337 74.3933 179.833 74.692C179.338 74.9813 178.76 75.126 178.097 75.126C177.416 75.126 176.8 74.958 176.249 74.622C175.698 74.286 175.264 73.8147 174.947 73.208C174.63 72.6013 174.471 71.9107 174.471 71.136ZM180.967 71.15C180.967 70.5713 180.85 70.0673 180.617 69.638C180.384 69.2087 180.066 68.882 179.665 68.658C179.273 68.4247 178.839 68.308 178.363 68.308C177.887 68.308 177.453 68.42 177.061 68.644C176.669 68.868 176.356 69.1947 176.123 69.624C175.89 70.0533 175.773 70.5573 175.773 71.136C175.773 71.724 175.89 72.2373 176.123 72.676C176.356 73.1053 176.669 73.4367 177.061 73.67C177.453 73.894 177.887 74.006 178.363 74.006C178.839 74.006 179.273 73.894 179.665 73.67C180.066 73.4367 180.384 73.1053 180.617 72.676C180.85 72.2373 180.967 71.7287 180.967 71.15ZM187.572 67.202C188.235 67.202 188.813 67.3467 189.308 67.636C189.812 67.9253 190.185 68.2893 190.428 68.728V67.328H191.716V75.168C191.716 75.868 191.567 76.4887 191.268 77.03C190.969 77.5807 190.54 78.01 189.98 78.318C189.429 78.626 188.785 78.78 188.048 78.78C187.04 78.78 186.2 78.542 185.528 78.066C184.856 77.59 184.459 76.9413 184.338 76.12H185.598C185.738 76.5867 186.027 76.96 186.466 77.24C186.905 77.5293 187.432 77.674 188.048 77.674C188.748 77.674 189.317 77.4547 189.756 77.016C190.204 76.5773 190.428 75.9613 190.428 75.168V73.558C190.176 74.006 189.803 74.3793 189.308 74.678C188.813 74.9767 188.235 75.126 187.572 75.126C186.891 75.126 186.27 74.958 185.71 74.622C185.159 74.286 184.725 73.8147 184.408 73.208C184.091 72.6013 183.932 71.9107 183.932 71.136C183.932 70.352 184.091 69.666 184.408 69.078C184.725 68.4807 185.159 68.0187 185.71 67.692C186.27 67.3653 186.891 67.202 187.572 67.202ZM190.428 71.15C190.428 70.5713 190.311 70.0673 190.078 69.638C189.845 69.2087 189.527 68.882 189.126 68.658C188.734 68.4247 188.3 68.308 187.824 68.308C187.348 68.308 186.914 68.42 186.522 68.644C186.13 68.868 185.817 69.1947 185.584 69.624C185.351 70.0533 185.234 70.5573 185.234 71.136C185.234 71.724 185.351 72.2373 185.584 72.676C185.817 73.1053 186.13 73.4367 186.522 73.67C186.914 73.894 187.348 74.006 187.824 74.006C188.3 74.006 188.734 73.894 189.126 73.67C189.527 73.4367 189.845 73.1053 190.078 72.676C190.311 72.2373 190.428 71.7287 190.428 71.15ZM200.869 70.87C200.869 71.1127 200.855 71.3693 200.827 71.64H194.695C194.742 72.396 194.998 72.9887 195.465 73.418C195.941 73.838 196.515 74.048 197.187 74.048C197.738 74.048 198.195 73.922 198.559 73.67C198.932 73.4087 199.194 73.0633 199.343 72.634H200.715C200.51 73.3713 200.099 73.9733 199.483 74.44C198.867 74.8973 198.102 75.126 197.187 75.126C196.459 75.126 195.806 74.9627 195.227 74.636C194.658 74.3093 194.21 73.8473 193.883 73.25C193.556 72.6433 193.393 71.9433 193.393 71.15C193.393 70.3567 193.552 69.6613 193.869 69.064C194.186 68.4667 194.63 68.0093 195.199 67.692C195.778 67.3653 196.44 67.202 197.187 67.202C197.915 67.202 198.559 67.3607 199.119 67.678C199.679 67.9953 200.108 68.434 200.407 68.994C200.715 69.5447 200.869 70.17 200.869 70.87ZM199.553 70.604C199.553 70.1187 199.446 69.7033 199.231 69.358C199.016 69.0033 198.722 68.7373 198.349 68.56C197.985 68.3733 197.579 68.28 197.131 68.28C196.487 68.28 195.936 68.4853 195.479 68.896C195.031 69.3067 194.774 69.876 194.709 70.604H199.553ZM210.021 67.188C210.954 67.188 211.71 67.4727 212.289 68.042C212.868 68.602 213.157 69.414 213.157 70.478V75H211.897V70.66C211.897 69.8947 211.706 69.3113 211.323 68.91C210.94 68.4993 210.418 68.294 209.755 68.294C209.083 68.294 208.546 68.504 208.145 68.924C207.753 69.344 207.557 69.9553 207.557 70.758V75H206.283V67.328H207.557V68.42C207.809 68.028 208.15 67.7247 208.579 67.51C209.018 67.2953 209.498 67.188 210.021 67.188ZM218.584 75.126C217.865 75.126 217.212 74.9627 216.624 74.636C216.045 74.3093 215.588 73.8473 215.252 73.25C214.925 72.6433 214.762 71.9433 214.762 71.15C214.762 70.366 214.93 69.6753 215.266 69.078C215.611 68.4713 216.078 68.0093 216.666 67.692C217.254 67.3653 217.912 67.202 218.64 67.202C219.368 67.202 220.026 67.3653 220.614 67.692C221.202 68.0093 221.664 68.4667 222 69.064C222.345 69.6613 222.518 70.3567 222.518 71.15C222.518 71.9433 222.341 72.6433 221.986 73.25C221.641 73.8473 221.169 74.3093 220.572 74.636C219.975 74.9627 219.312 75.126 218.584 75.126ZM218.584 74.006C219.041 74.006 219.471 73.8987 219.872 73.684C220.273 73.4693 220.595 73.1473 220.838 72.718C221.09 72.2887 221.216 71.766 221.216 71.15C221.216 70.534 221.095 70.0113 220.852 69.582C220.609 69.1527 220.292 68.8353 219.9 68.63C219.508 68.4153 219.083 68.308 218.626 68.308C218.159 68.308 217.73 68.4153 217.338 68.63C216.955 68.8353 216.647 69.1527 216.414 69.582C216.181 70.0113 216.064 70.534 216.064 71.15C216.064 71.7753 216.176 72.3027 216.4 72.732C216.633 73.1613 216.941 73.4833 217.324 73.698C217.707 73.9033 218.127 74.006 218.584 74.006ZM225.747 68.378V72.9C225.747 73.2733 225.827 73.5393 225.985 73.698C226.144 73.8473 226.419 73.922 226.811 73.922H227.749V75H226.601C225.892 75 225.36 74.8367 225.005 74.51C224.651 74.1833 224.473 73.6467 224.473 72.9V68.378H223.479V67.328H224.473V65.396H225.747V67.328H227.749V68.378H225.747ZM236.147 68.378H234.537V75H233.263V68.378H232.269V67.328H233.263V66.782C233.263 65.9233 233.483 65.298 233.921 64.906C234.369 64.5047 235.083 64.304 236.063 64.304V65.368C235.503 65.368 235.107 65.48 234.873 65.704C234.649 65.9187 234.537 66.278 234.537 66.782V67.328H236.147V68.378ZM240.979 75.126C240.26 75.126 239.607 74.9627 239.019 74.636C238.44 74.3093 237.983 73.8473 237.647 73.25C237.32 72.6433 237.157 71.9433 237.157 71.15C237.157 70.366 237.325 69.6753 237.661 69.078C238.006 68.4713 238.473 68.0093 239.061 67.692C239.649 67.3653 240.307 67.202 241.035 67.202C241.763 67.202 242.421 67.3653 243.009 67.692C243.597 68.0093 244.059 68.4667 244.395 69.064C244.74 69.6613 244.913 70.3567 244.913 71.15C244.913 71.9433 244.735 72.6433 244.381 73.25C244.035 73.8473 243.564 74.3093 242.967 74.636C242.369 74.9627 241.707 75.126 240.979 75.126ZM240.979 74.006C241.436 74.006 241.865 73.8987 242.267 73.684C242.668 73.4693 242.99 73.1473 243.233 72.718C243.485 72.2887 243.611 71.766 243.611 71.15C243.611 70.534 243.489 70.0113 243.247 69.582C243.004 69.1527 242.687 68.8353 242.295 68.63C241.903 68.4153 241.478 68.308 241.021 68.308C240.554 68.308 240.125 68.4153 239.733 68.63C239.35 68.8353 239.042 69.1527 238.809 69.582C238.575 70.0113 238.459 70.534 238.459 71.15C238.459 71.7753 238.571 72.3027 238.795 72.732C239.028 73.1613 239.336 73.4833 239.719 73.698C240.101 73.9033 240.521 74.006 240.979 74.006ZM253.392 67.328V75H252.118V73.866C251.875 74.258 251.534 74.566 251.096 74.79C250.666 75.0047 250.19 75.112 249.668 75.112C249.07 75.112 248.534 74.9907 248.058 74.748C247.582 74.496 247.204 74.1227 246.924 73.628C246.653 73.1333 246.518 72.5313 246.518 71.822V67.328H247.778V71.654C247.778 72.41 247.969 72.9933 248.352 73.404C248.734 73.8053 249.257 74.006 249.92 74.006C250.601 74.006 251.138 73.796 251.53 73.376C251.922 72.956 252.118 72.3447 252.118 71.542V67.328H253.392ZM259.281 67.188C260.214 67.188 260.97 67.4727 261.549 68.042C262.128 68.602 262.417 69.414 262.417 70.478V75H261.157V70.66C261.157 69.8947 260.966 69.3113 260.583 68.91C260.2 68.4993 259.678 68.294 259.015 68.294C258.343 68.294 257.806 68.504 257.405 68.924C257.013 69.344 256.817 69.9553 256.817 70.758V75H255.543V67.328H256.817V68.42C257.069 68.028 257.41 67.7247 257.839 67.51C258.278 67.2953 258.758 67.188 259.281 67.188ZM264.022 71.136C264.022 70.352 264.181 69.666 264.498 69.078C264.815 68.4807 265.249 68.0187 265.8 67.692C266.36 67.3653 266.985 67.202 267.676 67.202C268.273 67.202 268.829 67.342 269.342 67.622C269.855 67.8927 270.247 68.252 270.518 68.7V64.64H271.806V75H270.518V73.558C270.266 74.0153 269.893 74.3933 269.398 74.692C268.903 74.9813 268.325 75.126 267.662 75.126C266.981 75.126 266.36 74.958 265.8 74.622C265.249 74.286 264.815 73.8147 264.498 73.208C264.181 72.6013 264.022 71.9107 264.022 71.136ZM270.518 71.15C270.518 70.5713 270.401 70.0673 270.168 69.638C269.935 69.2087 269.617 68.882 269.216 68.658C268.824 68.4247 268.39 68.308 267.914 68.308C267.438 68.308 267.004 68.42 266.612 68.644C266.22 68.868 265.907 69.1947 265.674 69.624C265.441 70.0533 265.324 70.5573 265.324 71.136C265.324 71.724 265.441 72.2373 265.674 72.676C265.907 73.1053 266.22 73.4367 266.612 73.67C267.004 73.894 267.438 74.006 267.914 74.006C268.39 74.006 268.824 73.894 269.216 73.67C269.617 73.4367 269.935 73.1053 270.168 72.676C270.401 72.2373 270.518 71.7287 270.518 71.15Z" fill="#999999"/>
<path d="M222.667 98.25H228.792C229.333 98.25 229.852 98.4651 230.235 98.848C230.618 99.2309 230.833 99.7502 230.833 100.292V118.667M229.596 125.68C229.02 126.239 228.293 126.617 227.504 126.765C226.714 126.913 225.899 126.825 225.16 126.513C224.42 126.2 223.79 125.676 223.346 125.007C222.903 124.338 222.666 123.553 222.667 122.75V118.667M222.667 110.5V96.2083C222.667 95.6668 222.452 95.1475 222.069 94.7647C221.686 94.3818 221.166 94.1667 220.625 94.1667H206.333M198.708 94.822C198.359 95.1996 198.166 95.6946 198.167 96.2083V120.708C198.167 122.333 198.812 123.891 199.961 125.039C201.109 126.188 202.667 126.833 204.292 126.833H226.75M206.333 110.5H214.5M206.333 118.667H214.5M196.125 92.125L232.875 128.875" stroke="#999999" stroke-width="2" stroke-linecap="round" stroke-linejoin="round"/>
</svg>
