<svg width="14" height="14" viewBox="0 0 14 14" fill="none" xmlns="http://www.w3.org/2000/svg">
<path d="M1.94267 12.5C1.67394 12.5 1.44975 12.4102 1.27008 12.2305C1.09042 12.0508 1.00039 11.8265 1 11.5573V5.276C1 5.00728 1.09003 4.78309 1.27008 4.60342C1.45014 4.42375 1.67433 4.33373 1.94267 4.33334H3.66758L4.46442 3.46709C4.54997 3.37453 4.65361 3.30142 4.77533 3.24775C4.89628 3.1937 5.02325 3.16667 5.15625 3.16667H7.48375C7.56658 3.16667 7.636 3.19467 7.692 3.25067C7.748 3.30667 7.776 3.37609 7.776 3.45892C7.776 3.54175 7.748 3.61098 7.692 3.66659C7.636 3.7222 7.56678 3.75 7.48433 3.75H4.99933L3.92367 4.91667H1.94267C1.83767 4.91667 1.75153 4.95031 1.68425 5.01759C1.61697 5.08487 1.58333 5.171 1.58333 5.276V11.5579C1.58333 11.6625 1.61697 11.7485 1.68425 11.8158C1.75153 11.883 1.83767 11.9167 1.94267 11.9167H10.5579C10.6625 11.9167 10.7485 11.883 10.8157 11.8158C10.883 11.7485 10.9167 11.6623 10.9167 11.5573V7.18234C10.9167 7.09989 10.9447 7.03067 11.0007 6.97467C11.0567 6.91867 11.1261 6.89067 11.2089 6.89067C11.2917 6.89067 11.361 6.91867 11.4166 6.97467C11.4722 7.03067 11.5 7.09989 11.5 7.18234V11.5573C11.5 11.8261 11.41 12.0503 11.2299 12.2299C11.0499 12.4096 10.8259 12.4996 10.5579 12.5H1.94267ZM10.9167 3.75H10.0417C9.95883 3.75 9.88961 3.722 9.834 3.666C9.77839 3.61 9.75039 3.54059 9.75 3.45775C9.74961 3.37492 9.77761 3.3057 9.834 3.25009C9.89039 3.19448 9.95961 3.16667 10.0417 3.16667H10.9167V2.29167C10.9167 2.20884 10.9447 2.13962 11.0007 2.084C11.0567 2.02839 11.1261 2.00039 11.2089 2C11.2917 1.99962 11.361 2.02762 11.4166 2.084C11.4722 2.14039 11.5 2.20962 11.5 2.29167V3.16667H12.375C12.4578 3.16667 12.5271 3.19467 12.5827 3.25067C12.6383 3.30667 12.6663 3.37609 12.6667 3.45892C12.6671 3.54175 12.6391 3.61098 12.5827 3.66659C12.5263 3.7222 12.4571 3.75 12.375 3.75H11.5V4.625C11.5 4.70784 11.472 4.77706 11.416 4.83267C11.36 4.88828 11.2906 4.91628 11.2077 4.91667C11.1249 4.91706 11.0557 4.88906 11.0001 4.83267C10.9445 4.77628 10.9167 4.70706 10.9167 4.625V3.75ZM6.25 10.5925C6.85939 10.5925 7.37447 10.3823 7.79525 9.96192C8.21603 9.54153 8.42642 9.02645 8.42642 8.41667C8.42642 7.80689 8.21603 7.29181 7.79525 6.87142C7.37447 6.45103 6.85939 6.24064 6.25 6.24025C5.64061 6.23987 5.12553 6.45025 4.70475 6.87142C4.28397 7.29259 4.07358 7.80767 4.07358 8.41667C4.07358 9.02567 4.28397 9.54075 4.70475 9.96192C5.12553 10.3831 5.64061 10.5935 6.25 10.5931M6.25 10.0098C5.79694 10.0098 5.41817 9.8575 5.11367 9.553C4.80917 9.2485 4.65692 8.86973 4.65692 8.41667C4.65692 7.96362 4.80917 7.58484 5.11367 7.28034C5.41817 6.97584 5.79694 6.82359 6.25 6.82359C6.70306 6.82359 7.08183 6.97584 7.38633 7.28034C7.69083 7.58484 7.84308 7.96362 7.84308 8.41667C7.84308 8.86973 7.69083 9.2485 7.38633 9.553C7.08183 9.8575 6.70306 10.0098 6.25 10.0098Z" fill="#F7931A"/>
</svg>
