<svg width="16" height="16" viewBox="0 0 16 16" fill="none" xmlns="http://www.w3.org/2000/svg">
<rect width="16" height="16" rx="8" fill="#009393"/>
<path d="M8 14L2 7.83438L4.289 4H11.711L14 7.83438L8 14ZM8.6 8.375V7.6125C9.68 7.66875 10.688 7.8875 11 8.17188C10.637 8.50313 9.338 8.74375 8 8.74375C6.662 8.74375 5.363 8.50313 5 8.17188C5.309 7.8875 6.32 7.67187 7.4 7.60937V8.375H8.6ZM5 8.16875V8.62812C5.309 8.9125 6.317 9.12813 7.4 9.19063V10.875H8.6V9.1875C9.68 9.13125 10.691 8.9125 11 8.62812V7.7125C10.691 7.42812 9.68 7.20937 8.6 7.15V6.5H10.4V5.5625H5.6V6.5H7.4V7.15C6.317 7.20937 5.309 7.42812 5 7.7125V8.16875Z" fill="white"/>
</svg>
