<svg width="16" height="16" viewBox="0 0 16 16" fill="none" xmlns="http://www.w3.org/2000/svg">
<g clip-path="url(#clip0_30_64)">
<path d="M8 16C12.4183 16 16 12.4183 16 8C16 3.58172 12.4183 0 8 0C3.58172 0 0 3.58172 0 8C0 12.4183 3.58172 16 8 16Z" fill="#23292F"/>
<path d="M11.535 4H12.98L9.9725 6.9785C9.44674 7.49668 8.7382 7.78716 8 7.78716C7.2618 7.78716 6.55326 7.49668 6.0275 6.9785L3.0175 4H4.465L6.75 6.2615C7.08275 6.58993 7.53147 6.77408 7.999 6.77408C8.46653 6.77408 8.91525 6.58993 9.248 6.2615L11.535 4ZM4.4475 12.2815H3L6.0275 9.285C6.55326 8.76682 7.2618 8.47634 8 8.47634C8.7382 8.47634 9.44674 8.76682 9.9725 9.285L13 12.281H11.5525L9.25 10C8.91725 9.67157 8.46853 9.48742 8.001 9.48742C7.53347 9.48742 7.08475 9.67157 6.752 10L4.447 12.2815H4.4475Z" fill="white"/>
</g>
<defs>
<clipPath id="clip0_30_64">
<rect width="16" height="16" fill="white"/>
</clipPath>
</defs>
</svg>
